<mxfile host="906750e4-1a2b-48f4-bf6a-d239c5d91047" modified="2020-09-18T00:54:53.358Z" agent="5.0 (Windows NT 10.0; Win64; x64) AppleWebKit/537.36 (KHTML, like Gecko) Code/1.48.2 Chrome/78.0.3904.130 Electron/7.3.2 Safari/537.36" etag="9rir0x6LAZr1BdmOUtQX" version="13.1.3">
    <diagram name="Page-1" id="bfe91b75-5d2c-26a0-9c1d-138518896778">
        <mxGraphModel dx="1923" dy="1383" grid="1" gridSize="10" guides="1" tooltips="1" connect="1" arrows="1" fold="1" page="1" pageScale="1" pageWidth="1100" pageHeight="850" background="#ffffff" math="0" shadow="0">
            <root>
                <mxCell id="0"/>
                <mxCell id="1" parent="0"/>
                <mxCell id="jn-rKmcgPgKmR7aDAZmF-10" style="edgeStyle=orthogonalEdgeStyle;rounded=0;orthogonalLoop=1;jettySize=auto;html=1;exitX=0.98;exitY=0.5;exitDx=0;exitDy=0;exitPerimeter=0;entryX=0;entryY=0.5;entryDx=0;entryDy=0;strokeColor=#030303;fontColor=#0F0F0F;" parent="1" source="jn-rKmcgPgKmR7aDAZmF-1" target="jn-rKmcgPgKmR7aDAZmF-7" edge="1">
                    <mxGeometry relative="1" as="geometry">
                        <Array as="points">
                            <mxPoint x="660" y="125"/>
                            <mxPoint x="660" y="215"/>
                        </Array>
                    </mxGeometry>
                </mxCell>
                <mxCell id="jn-rKmcgPgKmR7aDAZmF-1" value="" style="fontColor=#0F0F0F;verticalAlign=top;verticalLabelPosition=bottom;labelPosition=center;align=center;html=1;outlineConnect=0;fillColor=#CCCCCC;strokeColor=#030303;gradientColor=none;gradientDirection=north;strokeWidth=2;shape=mxgraph.networks.gamepad;" parent="1" vertex="1">
                    <mxGeometry x="390" y="100" width="71.43" height="50" as="geometry"/>
                </mxCell>
                <mxCell id="jn-rKmcgPgKmR7aDAZmF-2" value="" style="fontColor=#0F0F0F;verticalAlign=top;verticalLabelPosition=bottom;labelPosition=center;align=center;html=1;outlineConnect=0;fillColor=#CCCCCC;strokeColor=#030303;gradientColor=none;gradientDirection=north;strokeWidth=2;shape=mxgraph.networks.server;" parent="1" vertex="1">
                    <mxGeometry x="640" y="660" width="90" height="100" as="geometry"/>
                </mxCell>
                <mxCell id="jn-rKmcgPgKmR7aDAZmF-22" style="edgeStyle=orthogonalEdgeStyle;rounded=0;orthogonalLoop=1;jettySize=auto;html=1;strokeColor=#030303;fontColor=#0F0F0F;" parent="1" source="jn-rKmcgPgKmR7aDAZmF-4" target="jn-rKmcgPgKmR7aDAZmF-21" edge="1">
                    <mxGeometry relative="1" as="geometry"/>
                </mxCell>
                <mxCell id="jn-rKmcgPgKmR7aDAZmF-4" value="Server" style="rounded=1;whiteSpace=wrap;html=1;shadow=0;comic=0;strokeColor=#030303;strokeWidth=2;fillColor=none;fontFamily=Verdana;fontSize=28;fontColor=#0F0F0F;align=center;arcSize=11;verticalAlign=top;" parent="1" vertex="1">
                    <mxGeometry x="590" y="590" width="190" height="210" as="geometry"/>
                </mxCell>
                <mxCell id="jn-rKmcgPgKmR7aDAZmF-14" style="edgeStyle=orthogonalEdgeStyle;rounded=0;orthogonalLoop=1;jettySize=auto;html=1;strokeColor=#030303;fontColor=#0F0F0F;" parent="1" source="jn-rKmcgPgKmR7aDAZmF-7" target="jn-rKmcgPgKmR7aDAZmF-4" edge="1">
                    <mxGeometry relative="1" as="geometry">
                        <Array as="points">
                            <mxPoint x="940" y="520"/>
                            <mxPoint x="685" y="520"/>
                        </Array>
                    </mxGeometry>
                </mxCell>
                <mxCell id="jn-rKmcgPgKmR7aDAZmF-16" style="edgeStyle=orthogonalEdgeStyle;rounded=0;orthogonalLoop=1;jettySize=auto;html=1;exitX=0.25;exitY=1;exitDx=0;exitDy=0;strokeColor=#030303;fontColor=#0F0F0F;" parent="1" source="jn-rKmcgPgKmR7aDAZmF-7" target="jn-rKmcgPgKmR7aDAZmF-15" edge="1">
                    <mxGeometry relative="1" as="geometry">
                        <mxPoint x="750" y="215" as="sourcePoint"/>
                        <Array as="points">
                            <mxPoint x="898" y="455"/>
                            <mxPoint x="426" y="455"/>
                        </Array>
                    </mxGeometry>
                </mxCell>
                <mxCell id="jn-rKmcgPgKmR7aDAZmF-7" value="Client" style="rounded=1;whiteSpace=wrap;html=1;shadow=0;comic=0;strokeColor=#030303;strokeWidth=2;fillColor=none;fontFamily=Verdana;fontSize=28;fontColor=#0F0F0F;align=center;arcSize=11;verticalAlign=top;" parent="1" vertex="1">
                    <mxGeometry x="850" y="110" width="190" height="210" as="geometry"/>
                </mxCell>
                <mxCell id="jn-rKmcgPgKmR7aDAZmF-11" style="edgeStyle=orthogonalEdgeStyle;rounded=0;orthogonalLoop=1;jettySize=auto;html=1;entryX=0;entryY=0.5;entryDx=0;entryDy=0;strokeColor=#030303;fontColor=#0F0F0F;" parent="1" source="jn-rKmcgPgKmR7aDAZmF-8" target="jn-rKmcgPgKmR7aDAZmF-7" edge="1">
                    <mxGeometry relative="1" as="geometry">
                        <Array as="points">
                            <mxPoint x="660" y="185"/>
                            <mxPoint x="660" y="215"/>
                        </Array>
                    </mxGeometry>
                </mxCell>
                <mxCell id="jn-rKmcgPgKmR7aDAZmF-8" value="" style="fontColor=#0F0F0F;verticalAlign=top;verticalLabelPosition=bottom;labelPosition=center;align=center;html=1;outlineConnect=0;fillColor=#CCCCCC;strokeColor=#030303;gradientColor=none;gradientDirection=north;strokeWidth=2;shape=mxgraph.networks.gamepad;" parent="1" vertex="1">
                    <mxGeometry x="390" y="160" width="71.43" height="50" as="geometry"/>
                </mxCell>
                <mxCell id="jn-rKmcgPgKmR7aDAZmF-12" style="edgeStyle=orthogonalEdgeStyle;rounded=0;orthogonalLoop=1;jettySize=auto;html=1;entryX=0;entryY=0.5;entryDx=0;entryDy=0;strokeColor=#030303;fontColor=#0F0F0F;" parent="1" source="jn-rKmcgPgKmR7aDAZmF-9" target="jn-rKmcgPgKmR7aDAZmF-7" edge="1">
                    <mxGeometry relative="1" as="geometry">
                        <Array as="points">
                            <mxPoint x="660" y="245"/>
                            <mxPoint x="660" y="215"/>
                        </Array>
                    </mxGeometry>
                </mxCell>
                <mxCell id="jn-rKmcgPgKmR7aDAZmF-9" value="" style="fontColor=#0F0F0F;verticalAlign=top;verticalLabelPosition=bottom;labelPosition=center;align=center;html=1;outlineConnect=0;fillColor=#CCCCCC;strokeColor=#030303;gradientColor=none;gradientDirection=north;strokeWidth=2;shape=mxgraph.networks.gamepad;" parent="1" vertex="1">
                    <mxGeometry x="390" y="220" width="71.43" height="50" as="geometry"/>
                </mxCell>
                <mxCell id="jn-rKmcgPgKmR7aDAZmF-15" value="Match" style="rounded=1;whiteSpace=wrap;html=1;shadow=0;comic=0;strokeColor=#030303;strokeWidth=2;fillColor=none;fontFamily=Verdana;fontSize=28;fontColor=#0F0F0F;align=center;arcSize=11;verticalAlign=top;" parent="1" vertex="1">
                    <mxGeometry x="330.71" y="590" width="190" height="210" as="geometry"/>
                </mxCell>
                <mxCell id="jn-rKmcgPgKmR7aDAZmF-17" value="" style="fontColor=#0F0F0F;verticalAlign=top;verticalLabelPosition=bottom;labelPosition=center;align=center;html=1;outlineConnect=0;fillColor=#CCCCCC;strokeColor=#030303;gradientColor=none;gradientDirection=north;strokeWidth=2;shape=mxgraph.networks.web_server;" parent="1" vertex="1">
                    <mxGeometry x="380" y="660" width="105" height="105" as="geometry"/>
                </mxCell>
                <mxCell id="jn-rKmcgPgKmR7aDAZmF-20" value="Socket.io" style="text;html=1;align=center;verticalAlign=middle;resizable=0;points=[];autosize=1;strokeColor=#030303;fontColor=#0F0F0F;" parent="1" vertex="1">
                    <mxGeometry x="650" y="425" width="60" height="20" as="geometry"/>
                </mxCell>
                <mxCell id="jn-rKmcgPgKmR7aDAZmF-21" value="" style="fontColor=#0F0F0F;verticalAlign=top;verticalLabelPosition=bottom;labelPosition=center;align=center;html=1;outlineConnect=0;fillColor=#CCCCCC;strokeColor=#030303;gradientColor=none;gradientDirection=north;strokeWidth=2;shape=mxgraph.networks.storage;" parent="1" vertex="1">
                    <mxGeometry x="895" y="645" width="100" height="100" as="geometry"/>
                </mxCell>
                <mxCell id="jn-rKmcgPgKmR7aDAZmF-23" value="" style="fontColor=#0F0F0F;verticalAlign=top;verticalLabelPosition=bottom;labelPosition=center;align=center;html=1;outlineConnect=0;fillColor=#CCCCCC;strokeColor=#030303;gradientColor=none;gradientDirection=north;strokeWidth=2;shape=mxgraph.networks.monitor;" parent="1" vertex="1">
                    <mxGeometry x="893.07" y="180" width="103.85" height="90" as="geometry"/>
                </mxCell>
                <mxCell id="2" value="Text" style="text;html=1;align=center;verticalAlign=middle;resizable=0;points=[];autosize=1;strokeColor=#030303;fontColor=#0F0F0F;" vertex="1" parent="1">
                    <mxGeometry x="194" y="434" width="40" height="20" as="geometry"/>
                </mxCell>
                <mxCell id="3" value="Text" style="text;html=1;align=center;verticalAlign=middle;resizable=0;points=[];autosize=1;strokeColor=#030303;fontColor=#0F0F0F;" vertex="1" parent="1">
                    <mxGeometry x="118" y="221" width="40" height="20" as="geometry"/>
                </mxCell>
            </root>
        </mxGraphModel>
    </diagram>
</mxfile>